<?xml version="1.0" encoding="UTF-8"?>
<!DOCTYPE svg PUBLIC "-//W3C//DTD SVG 1.1//EN" "http://www.w3.org/Graphics/SVG/1.1/DTD/svg11.dtd">
<svg xmlns="http://www.w3.org/2000/svg" version="1.1" width="512px" height="512px" style="shape-rendering:geometricPrecision; text-rendering:geometricPrecision; image-rendering:optimizeQuality; fill-rule:evenodd; clip-rule:evenodd" xmlns:xlink="http://www.w3.org/1999/xlink">
<g><path style="opacity:0.967" fill="#FF7C54" d="M 119.5,25.5 C 213.188,25.0221 306.855,25.5221 400.5,27C 450.268,38.1015 478.435,68.9348 485,119.5C 485.667,210.167 485.667,300.833 485,391.5C 479.995,433.373 458.162,462.539 419.5,479C 410.44,482.265 401.107,484.265 391.5,485C 300.833,485.667 210.167,485.667 119.5,485C 77.6239,479.994 48.4573,458.161 32,419.5C 28.7342,410.437 26.7342,401.104 26,391.5C 25.0221,297.813 25.3555,204.146 27,110.5C 38.3219,60.7813 69.1552,32.448 119.5,25.5 Z M 120.5,58.5 C 210.501,58.3333 300.501,58.5 390.5,59C 426.127,64.9607 446.627,85.7941 452,121.5C 452.667,210.833 452.667,300.167 452,389.5C 446.627,425.206 426.127,446.039 390.5,452C 300.5,452.667 210.5,452.667 120.5,452C 84.8725,446.039 64.3725,425.206 59,389.5C 58.3333,299.833 58.3333,210.167 59,120.5C 65.0124,85.3213 85.5124,64.6547 120.5,58.5 Z"/></g>
<g><path style="opacity:0.96" fill="#FF7C54" d="M 275.5,162.5 C 290.823,161.324 297.989,168.324 297,183.5C 279.667,235.5 262.333,287.5 245,339.5C 240.334,347.413 233.501,350.246 224.5,348C 215.564,343.962 212.064,337.129 214,327.5C 231.333,275.5 248.667,223.5 266,171.5C 268.406,167.592 271.572,164.592 275.5,162.5 Z"/></g>
<g><path style="opacity:0.958" fill="#FF7C54" d="M 176.5,187.5 C 193.59,189.681 198.756,198.681 192,214.5C 178.319,228.014 164.819,241.681 151.5,255.5C 164.819,269.319 178.319,282.986 192,296.5C 198.695,311.111 194.195,320.111 178.5,323.5C 174.946,322.945 171.613,321.779 168.5,320C 150.333,301.833 132.167,283.667 114,265.5C 110.667,258.833 110.667,252.167 114,245.5C 132.167,227.333 150.333,209.167 168.5,191C 171.158,189.522 173.825,188.355 176.5,187.5 Z"/></g>
<g><path style="opacity:0.958" fill="#FF7C54" d="M 330.5,187.5 C 334.769,187.734 338.769,188.901 342.5,191C 360.667,209.167 378.833,227.333 397,245.5C 400.333,252.167 400.333,258.833 397,265.5C 378.833,283.667 360.667,301.833 342.5,320C 328.182,326.674 319.182,322.341 315.5,307C 315.975,303.263 317.142,299.763 319,296.5C 332.681,282.986 346.181,269.319 359.5,255.5C 346.181,241.681 332.681,228.014 319,214.5C 312.47,200.906 316.304,191.906 330.5,187.5 Z"/></g>
</svg>
