<?xml version="1.0" encoding="UTF-8"?>
<!DOCTYPE svg PUBLIC "-//W3C//DTD SVG 1.1//EN" "http://www.w3.org/Graphics/SVG/1.1/DTD/svg11.dtd">
<svg xmlns="http://www.w3.org/2000/svg" version="1.1" width="512px" height="512px" style="shape-rendering:geometricPrecision; text-rendering:geometricPrecision; image-rendering:optimizeQuality; fill-rule:evenodd; clip-rule:evenodd" xmlns:xlink="http://www.w3.org/1999/xlink">
<g><path style="opacity:0.954" fill="#FF7C54" d="M 393.5,-0.5 C 399.833,-0.5 406.167,-0.5 412.5,-0.5C 439.761,8.33412 450.928,27.0008 446,55.5C 444.885,58.8946 443.385,62.0613 441.5,65C 465.68,64.8692 480.846,76.3692 487,99.5C 487.988,191.869 487.654,284.202 486,376.5C 480.768,392.399 469.935,401.899 453.5,405C 399.164,405.167 344.83,405.667 290.5,406.5C 294.678,422.393 298.345,438.393 301.5,454.5C 312.172,454.333 322.839,454.5 333.5,455C 351.381,460.58 359.381,472.747 357.5,491.5C 370.266,491.039 382.933,491.539 395.5,493C 401.205,499.923 400.538,506.089 393.5,511.5C 301.5,511.5 209.5,511.5 117.5,511.5C 110.462,506.089 109.795,499.923 115.5,493C 128.067,491.539 140.734,491.039 153.5,491.5C 151.619,472.747 159.619,460.58 177.5,455C 188.161,454.5 198.828,454.333 209.5,454.5C 212.655,438.393 216.322,422.393 220.5,406.5C 166.17,405.667 111.836,405.167 57.5,405C 39,401.167 27.8333,390 24,371.5C 23.3333,280.833 23.3333,190.167 24,99.5C 27.9537,80.5461 39.4537,69.3795 58.5,66C 150.835,65.8333 243.168,65.3333 335.5,64.5C 346.471,47.6971 357.637,31.0304 369,14.5C 375.824,7.15016 383.99,2.15016 393.5,-0.5 Z M 396.5,20.5 C 411.309,18.4947 421.142,24.4947 426,38.5C 427.154,45.8851 425.487,52.5518 421,58.5C 398.667,85.5 376.333,112.5 354,139.5C 344.783,131.949 335.283,124.782 325.5,118C 345.919,87.1607 366.586,56.494 387.5,26C 390.564,24.1412 393.564,22.3079 396.5,20.5 Z M 60.5,86.5 C 147.167,86.3333 233.834,86.5 320.5,87C 305.5,109.333 290.5,131.667 275.5,154C 255.533,154.758 238.367,161.925 224,175.5C 214.838,186.498 209.505,199.164 208,213.5C 206.31,234.626 208.644,255.293 215,275.5C 218.936,280.354 223.769,281.521 229.5,279C 234.729,274.111 240.729,270.445 247.5,268C 263.789,266.743 280.122,266.076 296.5,266C 316.57,262.043 329.403,250.21 335,230.5C 337.301,219.494 336.801,208.661 333.5,198C 363.714,161.075 394.047,124.241 424.5,87.5C 433.147,86.3348 441.814,86.1681 450.5,87C 459,88.8333 464.167,94 466,102.5C 466.5,167.499 466.667,232.499 466.5,297.5C 360.499,297.333 254.499,297.5 148.5,298C 144.198,299.935 142.198,303.268 142.5,308C 142.117,313.233 144.45,316.566 149.5,318C 255.166,318.5 360.833,318.667 466.5,318.5C 466.667,335.503 466.5,352.503 466,369.5C 463.833,377 459,381.833 451.5,384C 320.833,384.667 190.167,384.667 59.5,384C 52,381.833 47.1667,377 45,369.5C 44.5001,352.503 44.3334,335.503 44.5,318.5C 54.8387,318.666 65.172,318.5 75.5,318C 80.55,316.566 82.8834,313.233 82.5,308C 82.8019,303.268 80.8019,299.935 76.5,298C 65.8385,297.5 55.1719,297.333 44.5,297.5C 44.3333,232.499 44.5,167.499 45,102.5C 45.7206,98.6578 47.3872,95.3245 50,92.5C 53.3507,90.0795 56.8507,88.0795 60.5,86.5 Z M 313.5,135.5 C 322.623,142.117 331.623,148.951 340.5,156C 333.787,164.591 326.953,173.091 320,181.5C 311.666,175.327 303.5,168.994 295.5,162.5C 301.758,153.643 307.758,144.643 313.5,135.5 Z M 272.5,175.5 C 274.655,175.372 276.655,175.872 278.5,177C 289.692,185.692 301.025,194.192 312.5,202.5C 319.077,219.259 315.077,232.759 300.5,243C 298.212,243.822 295.878,244.489 293.5,245C 279.167,245.333 264.833,245.667 250.5,246C 243.937,247.057 237.603,248.891 231.5,251.5C 226.853,233.555 227.686,215.888 234,198.5C 242.917,184.291 255.751,176.624 272.5,175.5 Z M 242.5,405.5 C 251.418,405.183 260.251,405.516 269,406.5C 272.679,422.214 276.512,437.881 280.5,453.5C 263.833,454.833 247.167,454.833 230.5,453.5C 234.507,437.471 238.507,421.471 242.5,405.5 Z M 180.5,475.5 C 230.501,475.333 280.501,475.5 330.5,476C 333,477.167 334.833,479 336,481.5C 336.498,484.817 336.665,488.15 336.5,491.5C 282.5,491.5 228.5,491.5 174.5,491.5C 173.01,484.653 175.01,479.32 180.5,475.5 Z"/></g>
<g><path style="opacity:0.894" fill="#FF7C54" d="M 108.5,297.5 C 119.677,296.832 124.177,301.832 122,312.5C 117.66,318.864 112.16,320.031 105.5,316C 102.64,312.319 101.807,308.152 103,303.5C 104.36,300.977 106.193,298.977 108.5,297.5 Z"/></g>
</svg>
