<?xml version="1.0" encoding="UTF-8"?>
<!DOCTYPE svg PUBLIC "-//W3C//DTD SVG 1.1//EN" "http://www.w3.org/Graphics/SVG/1.1/DTD/svg11.dtd">
<svg xmlns="http://www.w3.org/2000/svg" version="1.1" width="512px" height="512px" style="shape-rendering:geometricPrecision; text-rendering:geometricPrecision; image-rendering:optimizeQuality; fill-rule:evenodd; clip-rule:evenodd" xmlns:xlink="http://www.w3.org/1999/xlink">
<g><path style="opacity:0.997" fill="#FF7C54" d="M 32.5,15.5 C 181.167,15.3333 329.834,15.5 478.5,16C 486.667,18.8333 492.167,24.3333 495,32.5C 495.667,181.167 495.667,329.833 495,478.5C 492.167,486.667 486.667,492.167 478.5,495C 329.833,495.667 181.167,495.667 32.5,495C 24.3333,492.167 18.8333,486.667 16,478.5C 15.3333,329.833 15.3333,181.167 16,32.5C 19.0191,24.3156 24.5191,18.649 32.5,15.5 Z M 39.5,31.5 C 183.5,31.3333 327.5,31.5 471.5,32C 476,32.5 478.5,35 479,39.5C 479.5,52.8292 479.667,66.1625 479.5,79.5C 330.167,79.5 180.833,79.5 31.5,79.5C 31.3334,66.1625 31.5001,52.8292 32,39.5C 32.6804,34.9895 35.1804,32.3228 39.5,31.5 Z M 31.5,95.5 C 180.833,95.5 330.167,95.5 479.5,95.5C 479.667,220.834 479.5,346.167 479,471.5C 478.5,476 476,478.5 471.5,479C 327.5,479.667 183.5,479.667 39.5,479C 35,478.5 32.5,476 32,471.5C 31.5,346.167 31.3333,220.834 31.5,95.5 Z M 63.5,127.5 C 191.5,127.5 319.5,127.5 447.5,127.5C 447.5,154.167 447.5,180.833 447.5,207.5C 319.5,207.5 191.5,207.5 63.5,207.5C 63.5,180.833 63.5,154.167 63.5,127.5 Z M 63.5,255.5 C 100.833,255.5 138.167,255.5 175.5,255.5C 175.5,319.5 175.5,383.5 175.5,447.5C 138.167,447.5 100.833,447.5 63.5,447.5C 63.5,383.5 63.5,319.5 63.5,255.5 Z M 223.5,255.5 C 298.167,255.5 372.833,255.5 447.5,255.5C 447.5,279.5 447.5,303.5 447.5,327.5C 372.833,327.5 298.167,327.5 223.5,327.5C 223.5,303.5 223.5,279.5 223.5,255.5 Z M 223.5,375.5 C 298.167,375.5 372.833,375.5 447.5,375.5C 447.5,399.5 447.5,423.5 447.5,447.5C 372.833,447.5 298.167,447.5 223.5,447.5C 223.5,423.5 223.5,399.5 223.5,375.5 Z"/></g>
<g><path style="opacity:0.892" fill="#FF7C54" d="M 86.5,46.5 C 94.3102,47.4344 97.1435,51.7678 95,59.5C 94.5,61.3333 93.3333,62.5 91.5,63C 80.128,64.2798 76.7947,59.6131 81.5,49C 83.3146,48.2432 84.9812,47.4098 86.5,46.5 Z"/></g>
<g><path style="opacity:0.885" fill="#FF7C54" d="M 51.5,47.5 C 58.6151,45.8824 62.9485,48.5491 64.5,55.5C 61.8907,63.6619 56.7241,65.6619 49,61.5C 46.4246,56.034 47.258,51.3673 51.5,47.5 Z"/></g>
<g><path style="opacity:0.885" fill="#FF7C54" d="M 115.5,47.5 C 122.615,45.8824 126.948,48.5491 128.5,55.5C 125.891,63.6619 120.724,65.6619 113,61.5C 110.425,56.034 111.258,51.3673 115.5,47.5 Z"/></g>
<g><path style="opacity:1" fill="#FF7C54" d="M 47.5,111.5 C 186.167,111.5 324.833,111.5 463.5,111.5C 463.5,148.833 463.5,186.167 463.5,223.5C 324.833,223.5 186.167,223.5 47.5,223.5C 47.5,186.167 47.5,148.833 47.5,111.5 Z M 63.5,127.5 C 63.5,154.167 63.5,180.833 63.5,207.5C 191.5,207.5 319.5,207.5 447.5,207.5C 447.5,180.833 447.5,154.167 447.5,127.5C 319.5,127.5 191.5,127.5 63.5,127.5 Z"/></g>
<g><path style="opacity:1" fill="#FF7C54" d="M 47.5,239.5 C 95.5,239.5 143.5,239.5 191.5,239.5C 191.5,314.167 191.5,388.833 191.5,463.5C 143.5,463.5 95.5,463.5 47.5,463.5C 47.5,388.833 47.5,314.167 47.5,239.5 Z M 63.5,255.5 C 63.5,319.5 63.5,383.5 63.5,447.5C 100.833,447.5 138.167,447.5 175.5,447.5C 175.5,383.5 175.5,319.5 175.5,255.5C 138.167,255.5 100.833,255.5 63.5,255.5 Z"/></g>
<g><path style="opacity:1" fill="#FF7C54" d="M 207.5,239.5 C 292.833,239.5 378.167,239.5 463.5,239.5C 463.5,274.167 463.5,308.833 463.5,343.5C 378.167,343.5 292.833,343.5 207.5,343.5C 207.5,308.833 207.5,274.167 207.5,239.5 Z M 223.5,255.5 C 223.5,279.5 223.5,303.5 223.5,327.5C 298.167,327.5 372.833,327.5 447.5,327.5C 447.5,303.5 447.5,279.5 447.5,255.5C 372.833,255.5 298.167,255.5 223.5,255.5 Z"/></g>
<g><path style="opacity:1" fill="#FF7C54" d="M 207.5,359.5 C 292.833,359.5 378.167,359.5 463.5,359.5C 463.5,394.167 463.5,428.833 463.5,463.5C 378.167,463.5 292.833,463.5 207.5,463.5C 207.5,428.833 207.5,394.167 207.5,359.5 Z M 223.5,375.5 C 223.5,399.5 223.5,423.5 223.5,447.5C 298.167,447.5 372.833,447.5 447.5,447.5C 447.5,423.5 447.5,399.5 447.5,375.5C 372.833,375.5 298.167,375.5 223.5,375.5 Z"/></g>
</svg>
