<?xml version="1.0" encoding="UTF-8"?>
<!DOCTYPE svg PUBLIC "-//W3C//DTD SVG 1.1//EN" "http://www.w3.org/Graphics/SVG/1.1/DTD/svg11.dtd">
<svg xmlns="http://www.w3.org/2000/svg" version="1.1" width="512px" height="512px" style="shape-rendering:geometricPrecision; text-rendering:geometricPrecision; image-rendering:optimizeQuality; fill-rule:evenodd; clip-rule:evenodd" xmlns:xlink="http://www.w3.org/1999/xlink">
<g><path style="opacity:0.998" fill="#FF7C54" d="M 51.5,-0.5 C 112.833,-0.5 174.167,-0.5 235.5,-0.5C 263.125,6.29274 280.292,23.6261 287,51.5C 287.667,89.5 287.667,127.5 287,165.5C 282.527,174.482 275.36,177.649 265.5,175C 261,173.167 257.833,170 256,165.5C 255.667,131.5 255.333,97.5 255,63.5C 253.167,44.3333 242.667,33.8333 223.5,32C 170.167,31.3333 116.833,31.3333 63.5,32C 44.3333,33.8333 33.8333,44.3333 32,63.5C 31.3333,148.833 31.3333,234.167 32,319.5C 32.93,335.546 41.0967,345.713 56.5,350C 80.1322,351.427 103.799,351.927 127.5,351.5C 127.333,306.832 127.5,262.165 128,217.5C 129.833,213 133,209.833 137.5,208C 258.833,207.333 380.167,207.333 501.5,208C 506.02,210.022 509.353,213.189 511.5,217.5C 511.5,312.167 511.5,406.833 511.5,501.5C 509.167,505.833 505.833,509.167 501.5,511.5C 380.167,511.5 258.833,511.5 137.5,511.5C 133.189,509.353 130.022,506.02 128,501.5C 127.5,462.168 127.333,422.835 127.5,383.5C 102.498,383.667 77.4978,383.5 52.5,383C 24.0764,376.741 6.40976,359.575 -0.5,331.5C -0.5,238.167 -0.5,144.833 -0.5,51.5C 6.5,23.8333 23.8333,6.5 51.5,-0.5 Z M 159.5,239.5 C 266.167,239.5 372.833,239.5 479.5,239.5C 479.5,319.5 479.5,399.5 479.5,479.5C 372.833,479.5 266.167,479.5 159.5,479.5C 159.5,399.5 159.5,319.5 159.5,239.5 Z"/></g>
<g><path style="opacity:0.989" fill="#ff4ab4" d="M 73.5,63.5 C 83.36,61.3496 90.5267,64.6829 95,73.5C 95.0622,93.2096 95.7288,112.876 97,132.5C 102.295,142.723 110.128,145.223 120.5,140C 123.106,138.062 124.939,135.562 126,132.5C 127.271,112.876 127.938,93.2096 128,73.5C 132.473,64.5178 139.64,61.3511 149.5,64C 154,65.8333 157.167,69 159,73.5C 159.667,94.8333 159.667,116.167 159,137.5C 153.833,157.333 141.333,169.833 121.5,175C 91.8205,178.421 72.6538,165.921 64,137.5C 63.3333,116.167 63.3333,94.8333 64,73.5C 66.0223,68.98 69.189,65.6467 73.5,63.5 Z"/></g>
<g><path style="opacity:0.993" fill="#ff4ab4" d="M 201.5,63.5 C 211.36,61.3496 218.527,64.6829 223,73.5C 223.667,104.167 223.667,134.833 223,165.5C 220.193,172.487 215.027,175.82 207.5,175.5C 199.973,175.82 194.807,172.487 192,165.5C 191.333,134.833 191.333,104.167 192,73.5C 194.022,68.98 197.189,65.6467 201.5,63.5 Z"/></g>
<g><path style="opacity:0.979" fill="#9f85eb" d="M 382.5,269.5 C 399.755,272.343 404.589,281.676 397,297.5C 388.914,307.36 381.08,317.36 373.5,327.5C 381.774,338.95 390.274,350.283 399,361.5C 400.367,380.794 391.867,387.294 373.5,381C 365.948,372.288 358.615,363.454 351.5,354.5C 344.385,363.454 337.052,372.288 329.5,381C 311.133,387.294 302.633,380.794 304,361.5C 312.726,350.283 321.226,338.95 329.5,327.5C 321.346,316.54 313.179,305.54 305,294.5C 302.291,284.75 305.458,277.583 314.5,273C 321.523,271.354 327.689,272.854 333,277.5C 338.697,285.572 344.864,293.238 351.5,300.5C 358.949,291.212 366.615,282.045 374.5,273C 377.158,271.522 379.825,270.355 382.5,269.5 Z"/></g>
<g><path style="opacity:0.986" fill="#9f85ec" d="M 201.5,271.5 C 211.36,269.35 218.527,272.683 223,281.5C 223.062,301.21 223.729,320.876 225,340.5C 230.295,350.723 238.128,353.223 248.5,348C 251.106,346.062 252.939,343.562 254,340.5C 255.271,320.876 255.938,301.21 256,281.5C 260.473,272.518 267.64,269.351 277.5,272C 282,273.833 285.167,277 287,281.5C 287.667,302.833 287.667,324.167 287,345.5C 281.833,365.333 269.333,377.833 249.5,383C 219.82,386.421 200.654,373.921 192,345.5C 191.333,324.167 191.333,302.833 192,281.5C 194.022,276.98 197.189,273.647 201.5,271.5 Z"/></g>
<g><path style="opacity:0.987" fill="#9f85eb" d="M 201.5,415.5 C 216.17,415.333 230.837,415.5 245.5,416C 254.482,420.473 257.649,427.64 255,437.5C 253.167,442 250,445.167 245.5,447C 230.833,447.667 216.167,447.667 201.5,447C 194.513,444.193 191.18,439.027 191.5,431.5C 191.302,423.885 194.635,418.551 201.5,415.5 Z"/></g>
<g><path style="opacity:0.995" fill="#9f85eb" d="M 297.5,415.5 C 344.168,415.333 390.835,415.5 437.5,416C 446.482,420.473 449.649,427.64 447,437.5C 445.167,442 442,445.167 437.5,447C 390.833,447.667 344.167,447.667 297.5,447C 290.513,444.193 287.18,439.027 287.5,431.5C 287.302,423.885 290.635,418.551 297.5,415.5 Z"/></g>
</svg>
