<?xml version="1.0" encoding="UTF-8"?>
<!DOCTYPE svg PUBLIC "-//W3C//DTD SVG 1.1//EN" "http://www.w3.org/Graphics/SVG/1.1/DTD/svg11.dtd">
<svg xmlns="http://www.w3.org/2000/svg" version="1.1" width="512px" height="512px" style="shape-rendering:geometricPrecision; text-rendering:geometricPrecision; image-rendering:optimizeQuality; fill-rule:evenodd; clip-rule:evenodd" xmlns:xlink="http://www.w3.org/1999/xlink">
<g><path style="opacity:0.998" fill="#00005b" d="M 511.5,82.5 C 511.5,197.833 511.5,313.167 511.5,428.5C 502.02,471.811 475.353,497.311 431.5,505C 314.167,505.667 196.833,505.667 79.5,505C 35.644,497.308 8.97734,471.808 -0.5,428.5C -0.5,313.167 -0.5,197.833 -0.5,82.5C 8.97665,39.193 35.6433,13.693 79.5,6C 196.833,5.33333 314.167,5.33333 431.5,6C 475.353,13.689 502.02,39.189 511.5,82.5 Z"/></g>
<g><path style="opacity:1" fill="#9898fe" d="M 135.5,134.5 C 155.409,134.174 175.243,134.507 195,135.5C 220.136,206.576 245.47,277.576 271,348.5C 272.149,351.393 272.649,354.393 272.5,357.5C 256.163,357.667 239.83,357.5 223.5,357C 217.604,339.812 211.604,322.646 205.5,305.5C 178.833,304.167 152.167,304.167 125.5,305.5C 119.927,322.72 114.26,339.887 108.5,357C 93.1703,357.5 77.837,357.667 62.5,357.5C 85.6871,289.107 109.187,220.774 133,152.5C 134.012,146.481 134.845,140.481 135.5,134.5 Z"/></g>
<g><path style="opacity:1" fill="#02015d" d="M 191.5,260.5 C 174.008,261.497 156.341,261.83 138.5,261.5C 147.021,232.083 155.855,202.749 165,173.5C 174.53,202.259 183.363,231.259 191.5,260.5 Z"/></g>
<g><path style="opacity:1" fill="#9898fe" d="M 403.5,285.5 C 379.672,284.502 355.672,284.169 331.5,284.5C 331.216,286.415 331.549,288.081 332.5,289.5C 337.693,309.514 350.693,320.347 371.5,322C 388.976,322.623 405.976,320.123 422.5,314.5C 423.666,327.154 423.833,339.82 423,352.5C 395.098,363.303 366.598,365.136 337.5,358C 310.089,347.585 292.922,328.085 286,299.5C 277.862,262.194 287.029,230.027 313.5,203C 339.244,184.206 367.244,180.206 397.5,191C 421.906,202.771 435.406,222.271 438,249.5C 438.749,260.532 438.415,271.532 437,282.5C 436.5,283 436,283.5 435.5,284C 424.87,285.238 414.203,285.738 403.5,285.5 Z"/></g>
<g><path style="opacity:1" fill="#01015c" d="M 355.5,222.5 C 372.204,219.661 384.371,225.661 392,240.5C 393.266,244.395 393.766,248.395 393.5,252.5C 372.867,253.466 352.2,253.799 331.5,253.5C 333.536,238.378 341.536,228.045 355.5,222.5 Z"/></g>
<g><path style="opacity:1" fill="#292987" d="M 191.5,260.5 C 192.043,260.56 192.376,260.893 192.5,261.5C 174.338,262.827 156.338,262.827 138.5,261.5C 156.341,261.83 174.008,261.497 191.5,260.5 Z"/></g>
<g><path style="opacity:1" fill="#5252b2" d="M 403.5,285.5 C 379.833,285.5 356.167,285.5 332.5,285.5C 332.5,286.833 332.5,288.167 332.5,289.5C 331.549,288.081 331.216,286.415 331.5,284.5C 355.672,284.169 379.672,284.502 403.5,285.5 Z"/></g>
</svg>
