<?xml version="1.0" encoding="UTF-8"?>
<!DOCTYPE svg PUBLIC "-//W3C//DTD SVG 1.1//EN" "http://www.w3.org/Graphics/SVG/1.1/DTD/svg11.dtd">
<svg xmlns="http://www.w3.org/2000/svg" version="1.1" width="512px" height="512px" style="shape-rendering:geometricPrecision; text-rendering:geometricPrecision; image-rendering:optimizeQuality; fill-rule:evenodd; clip-rule:evenodd" xmlns:xlink="http://www.w3.org/1999/xlink">
<g><path style="opacity:0.998" fill="#001834" d="M 511.5,82.5 C 511.5,197.833 511.5,313.167 511.5,428.5C 502.02,471.811 475.353,497.311 431.5,505C 314.167,505.667 196.833,505.667 79.5,505C 35.6433,497.307 8.97665,471.807 -0.5,428.5C -0.5,313.167 -0.5,197.833 -0.5,82.5C 8.97665,39.193 35.6433,13.693 79.5,6C 196.833,5.33333 314.167,5.33333 431.5,6C 475.357,13.693 502.023,39.193 511.5,82.5 Z"/></g>
<g><path style="opacity:1" fill="#00a7fd" d="M 156.5,132.5 C 176.307,131.653 195.974,132.819 215.5,136C 262.701,149.53 282.201,180.696 274,229.5C 265.694,258.471 246.861,276.637 217.5,284C 198.987,287.206 180.32,288.373 161.5,287.5C 161.667,310.836 161.5,334.169 161,357.5C 145.667,358.833 130.333,358.833 115,357.5C 114.333,283.167 114.333,208.833 115,134.5C 128.931,133.841 142.765,133.175 156.5,132.5 Z"/></g>
<g><path style="opacity:1" fill="#001835" d="M 161.5,174.5 C 171.839,174.334 182.172,174.5 192.5,175C 219.15,177.51 231.317,192.01 229,218.5C 227.128,228.089 221.962,235.256 213.5,240C 207.49,243.003 201.157,245.003 194.5,246C 183.544,247.319 172.544,247.819 161.5,247.5C 161.5,223.167 161.5,198.833 161.5,174.5 Z"/></g>
<g><path style="opacity:1" fill="#00a7fc" d="M 353.5,185.5 C 370.397,184.623 387.064,186.123 403.5,190C 407.298,190.928 410.798,192.428 414,194.5C 414.814,207.546 414.647,220.546 413.5,233.5C 411.926,234.631 410.259,234.798 408.5,234C 389.684,225.142 370.017,222.475 349.5,226C 341.215,233.313 341.882,239.979 351.5,246C 360.601,250.551 369.935,254.551 379.5,258C 388.984,262.239 397.984,267.239 406.5,273C 423.532,289.729 427.365,309.229 418,331.5C 409.884,346.599 397.384,356.099 380.5,360C 353.549,365.838 327.216,363.838 301.5,354C 300.667,353.167 299.833,352.333 299,351.5C 298.333,338.167 298.333,324.833 299,311.5C 299.561,310.978 300.228,310.645 301,310.5C 323.928,323.952 348.094,327.119 373.5,320C 378.12,313.387 377.12,307.721 370.5,303C 357.167,297 343.833,291 330.5,285C 304.012,271.556 294.512,250.39 302,221.5C 308.228,206.938 318.728,196.772 333.5,191C 340.142,188.581 346.809,186.748 353.5,185.5 Z"/></g>
</svg>
