<?xml version="1.0" encoding="UTF-8"?>
<!DOCTYPE svg PUBLIC "-//W3C//DTD SVG 1.1//EN" "http://www.w3.org/Graphics/SVG/1.1/DTD/svg11.dtd">
<svg xmlns="http://www.w3.org/2000/svg" version="1.1" width="512px" height="512px" style="shape-rendering:geometricPrecision; text-rendering:geometricPrecision; image-rendering:optimizeQuality; fill-rule:evenodd; clip-rule:evenodd" xmlns:xlink="http://www.w3.org/1999/xlink">
<g><path style="opacity:0.974" fill="#adb1d4" d="M 276.5,120.5 C 276.959,123.877 277.626,127.211 278.5,130.5C 262.991,130.17 247.658,130.504 232.5,131.5C 186.595,133.314 142.262,142.481 99.5,159C 72.4715,169.712 48.9715,185.546 29,206.5C 25.5759,211.022 22.4092,215.689 19.5,220.5C 17.2683,217.159 15.6016,213.492 14.5,209.5C 23.2902,196.209 34.2902,185.043 47.5,176C 77.6982,155.48 110.698,141.147 146.5,133C 189.262,123.037 232.596,118.87 276.5,120.5 Z"/></g>
<g><path style="opacity:0.977" fill="#9a9ec6" d="M 276.5,120.5 C 294.423,121.429 312.09,123.429 329.5,126.5C 328.5,126.5 327.5,126.5 326.5,126.5C 326.963,129.482 327.296,132.482 327.5,135.5C 326.167,135.5 324.833,135.5 323.5,135.5C 293.283,131.918 262.949,130.585 232.5,131.5C 247.658,130.504 262.991,130.17 278.5,130.5C 277.626,127.211 276.959,123.877 276.5,120.5 Z"/></g>
<g><path style="opacity:0.967" fill="#888cb8" d="M 329.5,126.5 C 343.673,128.268 357.673,130.935 371.5,134.5C 372.244,138.119 372.577,141.785 372.5,145.5C 356.16,141.632 339.827,138.299 323.5,135.5C 324.833,135.5 326.167,135.5 327.5,135.5C 327.296,132.482 326.963,129.482 326.5,126.5C 327.5,126.5 328.5,126.5 329.5,126.5 Z"/></g>
<g><path style="opacity:1" fill="#777bb3" d="M 232.5,131.5 C 262.949,130.585 293.283,131.918 323.5,135.5C 339.827,138.299 356.16,141.632 372.5,145.5C 372.577,141.785 372.244,138.119 371.5,134.5C 378.643,136.659 385.643,138.992 392.5,141.5C 391.761,141.369 391.094,141.536 390.5,142C 391.167,145.333 391.833,148.667 392.5,152C 407.324,157.08 421.658,163.247 435.5,170.5C 459.535,182.364 478.702,199.698 493,222.5C 506.737,252.092 503.07,279.425 482,304.5C 460.787,326.868 435.62,343.368 406.5,354C 393.693,358.88 380.693,363.047 367.5,366.5C 342.849,372.546 317.849,376.546 292.5,378.5C 258.023,381.019 223.69,380.019 189.5,375.5C 162.722,372.295 136.722,365.962 111.5,356.5C 86.5717,347.874 63.905,335.374 43.5,319C 26.3589,304.88 15.1923,287.046 10,265.5C 7.74443,249.274 10.9111,234.274 19.5,220.5C 22.4092,215.689 25.5759,211.022 29,206.5C 48.9715,185.546 72.4715,169.712 99.5,159C 142.262,142.481 186.595,133.314 232.5,131.5 Z"/></g>
<g><path style="opacity:0.98" fill="#65699f" d="M 392.5,141.5 C 407.548,145.955 421.881,151.955 435.5,159.5C 435.5,163.167 435.5,166.833 435.5,170.5C 421.658,163.247 407.324,157.08 392.5,152C 391.833,148.667 391.167,145.333 390.5,142C 391.094,141.536 391.761,141.369 392.5,141.5 Z"/></g>
<g><path style="opacity:1" fill="#f2f2f3" d="M 229.5,154.5 C 240.505,154.333 251.505,154.5 262.5,155C 263.931,155.465 265.097,156.299 266,157.5C 264.661,168.538 262.827,179.538 260.5,190.5C 271.172,190.333 281.839,190.5 292.5,191C 309.97,191.461 321.137,199.961 326,216.5C 327.611,209.554 328.945,202.554 330,195.5C 330.574,193.508 331.741,192.008 333.5,191C 356.833,190.333 380.167,190.333 403.5,191C 432.129,195.765 445.296,212.599 443,241.5C 439.678,268.816 425.178,287.316 399.5,297C 394.523,298.107 389.523,299.107 384.5,300C 373.152,300.168 361.819,300.668 350.5,301.5C 348.529,312.19 346.362,322.857 344,333.5C 343.167,334.333 342.333,335.167 341.5,336C 330.167,336.667 318.833,336.667 307.5,336C 306.692,335.692 306.025,335.192 305.5,334.5C 304.415,331.227 304.248,327.894 305,324.5C 306.733,316.532 308.233,308.532 309.5,300.5C 297.829,300.667 286.162,300.5 274.5,300C 273.299,299.097 272.465,297.931 272,296.5C 275.396,276.18 279.063,255.846 283,235.5C 283.499,231.848 283.665,228.182 283.5,224.5C 273.539,223.576 263.539,223.242 253.5,223.5C 249.282,248.876 244.282,274.043 238.5,299C 226.596,300.625 214.596,300.958 202.5,300C 200.703,298.406 199.703,296.406 199.5,294C 201.273,285.809 202.773,277.643 204,269.5C 192.078,289.051 174.578,299.218 151.5,300C 141.172,300.5 130.839,300.666 120.5,300.5C 118.862,312.189 116.529,323.689 113.5,335C 101.596,336.625 89.5965,336.958 77.5,336C 75.6431,334.818 74.6431,333.151 74.5,331C 83.0314,284.677 92.198,238.51 102,192.5C 102.5,192 103,191.5 103.5,191C 115.333,190.833 127.167,190.667 139,190.5C 152.544,190.38 166.044,190.88 179.5,192C 196.722,195.557 207.889,205.724 213,222.5C 217.945,201.372 222.278,180.039 226,158.5C 226.69,156.65 227.856,155.316 229.5,154.5 Z"/></g>
<g><path style="opacity:1" fill="#020202" d="M 254.5,193.5 C 253.596,194.209 253.263,195.209 253.5,196.5C 265.167,196.5 276.833,196.5 288.5,196.5C 299.752,196.523 309.252,200.523 317,208.5C 320.034,214.498 321.034,220.831 320,227.5C 315.253,249.736 311.086,272.069 307.5,294.5C 297.5,294.5 287.5,294.5 277.5,294.5C 281.286,274.836 285.119,255.169 289,235.5C 292.274,225.896 289.107,220.063 279.5,218C 269.506,217.5 259.506,217.334 249.5,217.5C 244.685,242.87 239.685,268.204 234.5,293.5C 224.856,294.498 215.19,294.832 205.5,294.5C 214.074,249.815 222.741,205.148 231.5,160.5C 241.19,160.168 250.856,160.502 260.5,161.5C 257.857,172.05 255.857,182.717 254.5,193.5 Z"/></g>
<g><path style="opacity:0.972" fill="#4a4d8a" d="M 435.5,159.5 C 462.695,171.859 484.528,190.525 501,215.5C 505.818,224.467 509.318,233.8 511.5,243.5C 511.5,251.5 511.5,259.5 511.5,267.5C 506.406,288.842 495.74,307.009 479.5,322C 443.471,351.343 402.471,370.509 356.5,379.5C 360.565,375.441 364.232,371.107 367.5,366.5C 380.693,363.047 393.693,358.88 406.5,354C 435.62,343.368 460.787,326.868 482,304.5C 503.07,279.425 506.737,252.092 493,222.5C 478.702,199.698 459.535,182.364 435.5,170.5C 435.5,166.833 435.5,163.167 435.5,159.5 Z"/></g>
<g><path style="opacity:1" fill="#7c7c7c" d="M 254.5,193.5 C 265.63,195.159 276.963,196.159 288.5,196.5C 276.833,196.5 265.167,196.5 253.5,196.5C 253.263,195.209 253.596,194.209 254.5,193.5 Z"/></g>
<g><path style="opacity:1" fill="#020202" d="M 110.5,327.5 C 109.596,328.209 109.263,329.209 109.5,330.5C 99.8333,330.5 90.1667,330.5 80.5,330.5C 88.9103,286.115 97.5769,241.782 106.5,197.5C 129.493,196.334 152.493,196.167 175.5,197C 202.211,203.065 212.711,219.565 207,246.5C 201.787,270.712 187.287,286.212 163.5,293C 147.861,294.069 132.194,294.902 116.5,295.5C 113.857,306.05 111.857,316.717 110.5,327.5 Z"/></g>
<g><path style="opacity:1" fill="#020202" d="M 339.5,330.5 C 329.833,330.5 320.167,330.5 310.5,330.5C 310.5,329.5 310.5,328.5 310.5,327.5C 318.961,283.86 327.295,240.193 335.5,196.5C 360.21,196.049 384.877,196.549 409.5,198C 423.822,200.99 432.988,209.49 437,223.5C 440.364,253.611 428.864,275.778 402.5,290C 397.297,291.841 391.964,293.174 386.5,294C 372.837,294.5 359.171,294.667 345.5,294.5C 343.371,306.477 341.371,318.477 339.5,330.5 Z"/></g>
<g><path style="opacity:1" fill="#f7f7f8" d="M 138.5,273.5 C 132.833,273.5 127.167,273.5 121.5,273.5C 121.5,272.5 121.5,271.5 121.5,270.5C 124.555,253.115 127.888,235.782 131.5,218.5C 141.483,217.334 151.483,217.168 161.5,218C 168.997,218.158 174.164,221.658 177,228.5C 178.583,241.165 175.917,252.831 169,263.5C 164.931,268.285 159.764,271.119 153.5,272C 148.552,273.05 143.552,273.55 138.5,273.5 Z"/></g>
<g><path style="opacity:1" fill="#f5f5f6" d="M 360.5,217.5 C 371.172,217.333 381.839,217.5 392.5,218C 404.791,221.062 409.624,228.895 407,241.5C 405.904,256.572 398.404,266.739 384.5,272C 373.21,273.326 361.877,273.826 350.5,273.5C 353.705,254.808 357.039,236.141 360.5,217.5 Z"/></g>
<g><path style="opacity:1" fill="#797db4" d="M 136.5,222.5 C 143.175,222.334 149.842,222.5 156.5,223C 169.359,222.852 174.526,229.019 172,241.5C 170.78,249.855 167.28,257.022 161.5,263C 150.666,267.606 139.333,269.439 127.5,268.5C 129.993,253.038 132.993,237.704 136.5,222.5 Z"/></g>
<g><path style="opacity:1" fill="#797db4" d="M 365.5,222.5 C 373.507,222.334 381.507,222.5 389.5,223C 393.326,223.832 396.826,225.332 400,227.5C 403.149,241.072 399.983,252.905 390.5,263C 379.657,268.085 368.323,269.585 356.5,267.5C 359.963,252.592 362.963,237.592 365.5,222.5 Z"/></g>
<g><path style="opacity:1" fill="#484848" d="M 121.5,270.5 C 121.5,271.5 121.5,272.5 121.5,273.5C 127.167,273.5 132.833,273.5 138.5,273.5C 132.69,274.49 126.69,274.823 120.5,274.5C 120.232,272.901 120.566,271.568 121.5,270.5 Z"/></g>
<g><path style="opacity:0.988" fill="#8f93be" d="M 14.5,209.5 C 15.6016,213.492 17.2683,217.159 19.5,220.5C 10.9111,234.274 7.74443,249.274 10,265.5C 15.1923,287.046 26.3589,304.88 43.5,319C 63.905,335.374 86.5717,347.874 111.5,356.5C 111.083,357.124 110.416,357.457 109.5,357.5C 82.5385,351.347 57.8718,340.347 35.5,324.5C 16.9607,309.628 4.96069,290.628 -0.5,267.5C -0.5,259.5 -0.5,251.5 -0.5,243.5C 2.17542,231.14 7.17542,219.807 14.5,209.5 Z"/></g>
<g><path style="opacity:1" fill="#9c9c9c" d="M 110.5,327.5 C 110.5,328.833 110.5,330.167 110.5,331.5C 100.319,331.827 90.3194,331.494 80.5,330.5C 90.1667,330.5 99.8333,330.5 109.5,330.5C 109.263,329.209 109.596,328.209 110.5,327.5 Z"/></g>
<g><path style="opacity:1" fill="#999999" d="M 310.5,327.5 C 310.5,328.5 310.5,329.5 310.5,330.5C 320.167,330.5 329.833,330.5 339.5,330.5C 329.681,331.494 319.681,331.827 309.5,331.5C 309.232,329.901 309.566,328.568 310.5,327.5 Z"/></g>
<g><path style="opacity:0.966" fill="#8488b5" d="M 35.5,324.5 C 57.8718,340.347 82.5385,351.347 109.5,357.5C 110.416,357.457 111.083,357.124 111.5,356.5C 136.722,365.962 162.722,372.295 189.5,375.5C 189.611,376.117 189.944,376.617 190.5,377C 180.98,378.294 171.647,379.794 162.5,381.5C 119.09,373.651 79.4231,357.151 43.5,332C 40.5685,329.715 37.9018,327.215 35.5,324.5 Z"/></g>
<g><path style="opacity:0.972" fill="#62669c" d="M 367.5,366.5 C 364.232,371.107 360.565,375.441 356.5,379.5C 329.215,385.703 301.548,389.369 273.5,390.5C 273.082,389.778 272.416,389.278 271.5,389C 278.369,384.899 285.369,381.399 292.5,378.5C 317.849,376.546 342.849,372.546 367.5,366.5 Z"/></g>
<g><path style="opacity:0.968" fill="#7579aa" d="M 189.5,375.5 C 223.69,380.019 258.023,381.019 292.5,378.5C 285.369,381.399 278.369,384.899 271.5,389C 272.416,389.278 273.082,389.778 273.5,390.5C 236.132,391.698 199.132,388.698 162.5,381.5C 171.647,379.794 180.98,378.294 190.5,377C 189.944,376.617 189.611,376.117 189.5,375.5 Z"/></g>
</svg>
