<?xml version="1.0" encoding="UTF-8"?>
<!DOCTYPE svg PUBLIC "-//W3C//DTD SVG 1.1//EN" "http://www.w3.org/Graphics/SVG/1.1/DTD/svg11.dtd">
<svg xmlns="http://www.w3.org/2000/svg" version="1.1" width="528px" height="528px" style="shape-rendering:geometricPrecision; text-rendering:geometricPrecision; image-rendering:optimizeQuality; fill-rule:evenodd; clip-rule:evenodd" xmlns:xlink="http://www.w3.org/1999/xlink">
<g><path style="opacity:0.972" fill="#fdfdfd" d="M 255.5,-0.5 C 260.833,-0.5 266.167,-0.5 271.5,-0.5C 283.331,1.51388 294.664,5.34721 305.5,11C 354.833,40.3333 404.167,69.6667 453.5,99C 478.354,113.872 492.854,135.705 497,164.5C 497.667,230.5 497.667,296.5 497,362.5C 492.831,391.375 478.331,413.209 453.5,428C 401.094,459.399 348.427,490.399 295.5,521C 287.412,523.315 279.412,525.481 271.5,527.5C 265.833,527.5 260.167,527.5 254.5,527.5C 241.521,525.115 229.188,520.615 217.5,514C 168.167,484.667 118.833,455.333 69.5,426C 47.4023,411.32 34.2357,390.82 30,364.5C 29.3333,297.167 29.3333,229.833 30,162.5C 34.2328,136.187 47.3994,115.687 69.5,101C 123.24,68.9346 177.24,37.2679 231.5,6C 239.588,3.68533 247.588,1.51866 255.5,-0.5 Z"/></g>
<g><path style="opacity:1" fill="#2e373b" d="M 254.5,24.5 C 268.36,23.4757 281.36,26.3091 293.5,33C 346.429,64.269 399.096,95.9357 451.5,128C 463.193,138.218 470.027,151.052 472,166.5C 472.667,231.167 472.667,295.833 472,360.5C 469.686,378.459 461.186,392.626 446.5,403C 392.998,434.919 339.331,466.585 285.5,498C 268.868,504.439 252.534,503.773 236.5,496C 183.833,464.667 131.167,433.333 78.5,402C 64.7563,391.572 56.923,377.739 55,360.5C 54.3333,294.833 54.3333,229.167 55,163.5C 58.7849,145.085 68.6182,130.918 84.5,121C 135.167,91 185.833,61 236.5,31C 242.435,28.3026 248.435,26.1359 254.5,24.5 Z"/></g>
<g><path style="opacity:1" fill="#fcfcfc" d="M 256.5,35.5 C 269.381,35.2207 281.381,38.3873 292.5,45C 340.668,73.9186 389.002,102.585 437.5,131C 448.816,138.091 455.816,147.924 458.5,160.5C 448.813,155.1 439.146,155.267 429.5,161C 378.5,192.667 327.5,224.333 276.5,256C 266.283,264.933 260.117,276.1 258,289.5C 257.333,349.833 257.333,410.167 258,470.5C 258.691,478.257 261.858,484.757 267.5,490C 259.563,492.383 251.897,491.716 244.5,488C 192.167,457 139.833,426 87.5,395C 74.3131,386.481 66.8131,374.315 65,358.5C 64.3333,294.5 64.3333,230.5 65,166.5C 68.3999,150.767 76.8999,138.601 90.5,130C 139.094,101.732 187.428,73.0649 235.5,44C 242.182,40.0582 249.182,37.2248 256.5,35.5 Z"/></g>
<g><path style="opacity:1" fill="#f8f8f8" d="M 322.5,288.5 C 323.5,288.5 324.5,288.5 325.5,288.5C 325.335,292.182 325.501,295.848 326,299.5C 326.5,300 327,300.5 327.5,301C 330.49,300.848 333.49,300.348 336.5,299.5C 337.772,299.57 338.938,299.903 340,300.5C 340.667,304.5 340.667,308.5 340,312.5C 339.167,314.667 337.667,316.167 335.5,317C 324.693,316.501 316.859,321.001 312,330.5C 310.075,336.431 311.908,340.598 317.5,343C 324.918,343.615 331.918,345.615 338.5,349C 343.375,352.584 345.708,357.417 345.5,363.5C 344.696,372.361 342.196,380.695 338,388.5C 333.561,392.938 329.894,397.938 327,403.5C 326.667,407.833 326.333,412.167 326,416.5C 325.626,417.416 325.126,418.25 324.5,419C 321.792,420.069 319.125,421.236 316.5,422.5C 315.914,422.291 315.414,421.957 315,421.5C 314.667,418.167 314.333,414.833 314,411.5C 313.5,411 313,410.5 312.5,410C 308.766,409.738 305.099,410.238 301.5,411.5C 299.626,411.61 298.126,410.944 297,409.5C 294.086,397.084 298.919,391.584 311.5,393C 324.781,390.065 330.614,381.898 329,368.5C 328.5,366.667 327.333,365.5 325.5,365C 295.442,361.546 288.275,346.713 304,320.5C 307.716,316.452 311.05,312.118 314,307.5C 314.333,302.833 314.667,298.167 315,293.5C 317.479,291.686 319.979,290.019 322.5,288.5 Z"/></g>
<g><path style="opacity:1" fill="#39a647" d="M 403.5,369.5 C 404.117,369.611 404.617,369.944 405,370.5C 406.711,376.694 405.211,381.86 400.5,386C 389.568,392.381 378.734,398.881 368,405.5C 363.783,402.728 362.783,399.061 365,394.5C 366.5,393 368,391.5 369.5,390C 381.063,383.392 392.396,376.559 403.5,369.5 Z"/></g>
</svg>
