<?xml version="1.0" encoding="UTF-8"?>
<!DOCTYPE svg PUBLIC "-//W3C//DTD SVG 1.1//EN" "http://www.w3.org/Graphics/SVG/1.1/DTD/svg11.dtd">
<svg xmlns="http://www.w3.org/2000/svg" version="1.1" width="512px" height="512px" style="shape-rendering:geometricPrecision; text-rendering:geometricPrecision; image-rendering:optimizeQuality; fill-rule:evenodd; clip-rule:evenodd" xmlns:xlink="http://www.w3.org/1999/xlink">
<g><path style="opacity:1" fill="#deb945" d="M 226.5,-0.5 C 236.167,-0.5 245.833,-0.5 255.5,-0.5C 255.5,34.8333 255.5,70.1667 255.5,105.5C 215.796,106.947 177.129,101.447 139.5,89C 128.969,84.7918 119.802,78.6251 112,70.5C 109.226,65.6332 107.059,60.6332 105.5,55.5C 105.474,43.718 110.141,34.218 119.5,27C 133.817,17.5554 149.484,11.222 166.5,8C 186.483,4.00451 206.483,1.17118 226.5,-0.5 Z"/></g>
<g><path style="opacity:0.996" fill="#ffd54e" d="M 255.5,-0.5 C 265.167,-0.5 274.833,-0.5 284.5,-0.5C 308.704,1.19675 332.704,5.03009 356.5,11C 373.644,14.6508 388.144,22.8175 400,35.5C 403.525,40.6312 405.358,46.2978 405.5,52.5C 403.494,65.3653 396.827,75.1986 385.5,82C 363.437,93.0167 340.103,99.6834 315.5,102C 295.582,104.515 275.582,105.681 255.5,105.5C 255.5,70.1667 255.5,34.8333 255.5,-0.5 Z"/></g>
<g><path style="opacity:1" fill="#dea806" d="M 105.5,55.5 C 107.059,60.6332 109.226,65.6332 112,70.5C 119.802,78.6251 128.969,84.7918 139.5,89C 177.129,101.447 215.796,106.947 255.5,105.5C 255.5,134.167 255.5,162.833 255.5,191.5C 221.668,191.945 188.335,188.111 155.5,180C 141.741,176.119 129.074,170.119 117.5,162C 111.535,156.227 107.535,149.393 105.5,141.5C 105.5,112.833 105.5,84.1667 105.5,55.5 Z"/></g>
<g><path style="opacity:1" fill="#ffc107" d="M 405.5,52.5 C 405.5,82.1667 405.5,111.833 405.5,141.5C 403.405,150.836 398.405,158.336 390.5,164C 374.573,174.2 357.24,180.867 338.5,184C 311.037,188.82 283.371,191.32 255.5,191.5C 255.5,162.833 255.5,134.167 255.5,105.5C 275.582,105.681 295.582,104.515 315.5,102C 340.103,99.6834 363.437,93.0167 385.5,82C 396.827,75.1986 403.494,65.3653 405.5,52.5 Z"/></g>
<g><path style="opacity:0.996" fill="#ffd44e" d="M 405.5,141.5 C 405.5,168.833 405.5,196.167 405.5,223.5C 402.975,238 394.975,248.5 381.5,255C 364.258,262.812 346.258,268.145 327.5,271C 303.614,274.369 279.614,276.202 255.5,276.5C 255.5,248.167 255.5,219.833 255.5,191.5C 283.371,191.32 311.037,188.82 338.5,184C 357.24,180.867 374.573,174.2 390.5,164C 398.405,158.336 403.405,150.836 405.5,141.5 Z"/></g>
<g><path style="opacity:1" fill="#deb944" d="M 105.5,141.5 C 107.535,149.393 111.535,156.227 117.5,162C 129.074,170.119 141.741,176.119 155.5,180C 188.335,188.111 221.668,191.945 255.5,191.5C 255.5,219.833 255.5,248.167 255.5,276.5C 219.144,277.331 183.477,272.831 148.5,263C 133.415,259.054 120.915,251.22 111,239.5C 108.703,235.24 106.87,230.907 105.5,226.5C 105.5,198.167 105.5,169.833 105.5,141.5 Z"/></g>
<g><path style="opacity:0.994" fill="#ffc107" d="M 405.5,223.5 C 405.5,249.833 405.5,276.167 405.5,302.5C 375.753,293.583 351.253,301.25 332,325.5C 310.514,305.502 285.014,296.502 255.5,298.5C 255.5,291.167 255.5,283.833 255.5,276.5C 279.614,276.202 303.614,274.369 327.5,271C 346.258,268.145 364.258,262.812 381.5,255C 394.975,248.5 402.975,238 405.5,223.5 Z"/></g>
<g><path style="opacity:1" fill="#dea806" d="M 105.5,226.5 C 106.87,230.907 108.703,235.24 111,239.5C 120.915,251.22 133.415,259.054 148.5,263C 183.477,272.831 219.144,277.331 255.5,276.5C 255.5,283.833 255.5,291.167 255.5,298.5C 225.986,296.502 200.486,305.502 179,325.5C 167.724,310.108 152.557,301.274 133.5,299C 124.173,298.5 114.839,298.334 105.5,298.5C 105.5,274.5 105.5,250.5 105.5,226.5 Z"/></g>
<g><path style="opacity:0.99" fill="#2196f3" d="M 139.5,427.5 C 110.833,427.5 82.1667,427.5 53.5,427.5C 39.3918,408.257 37.8918,387.923 49,366.5C 63.8978,345.147 84.3978,336.481 110.5,340.5C 118.167,340.667 125.833,340.833 133.5,341C 147.703,347.246 152.203,357.746 147,372.5C 144.054,377.445 139.888,380.945 134.5,383C 120.112,383.069 105.779,383.736 91.5,385C 83.9079,390.508 83.5745,396.508 90.5,403C 104.831,403.496 117.831,407.829 129.5,416C 133.416,419.41 136.749,423.243 139.5,427.5 Z"/></g>
<g><path style="opacity:0.992" fill="#2196f3" d="M 319.5,427.5 C 305.167,427.5 290.833,427.5 276.5,427.5C 276.941,414.759 276.441,402.092 275,389.5C 273.833,387.667 272.333,386.167 270.5,385C 260.5,383 250.5,383 240.5,385C 238.667,386.167 237.167,387.667 236,389.5C 234.559,402.092 234.059,414.759 234.5,427.5C 220.167,427.5 205.833,427.5 191.5,427.5C 191.333,412.83 191.5,398.163 192,383.5C 201.431,352.18 222.597,337.846 255.5,340.5C 288.403,337.846 309.569,352.18 319,383.5C 319.5,398.163 319.667,412.83 319.5,427.5 Z"/></g>
<g><path style="opacity:0.972" fill="#2195f3" d="M 405.5,427.5 C 390.833,427.5 376.167,427.5 361.5,427.5C 361.039,403.115 361.539,378.781 363,354.5C 368.166,343 376.999,338.5 389.5,341C 396.573,343.072 401.406,347.572 404,354.5C 405.461,378.781 405.961,403.115 405.5,427.5 Z"/></g>
<g><path style="opacity:1" fill="#1d83d4" d="M 53.5,427.5 C 82.1667,427.5 110.833,427.5 139.5,427.5C 153.208,449.063 152.708,470.396 138,491.5C 129.254,501.783 118.42,508.45 105.5,511.5C 89.1667,511.5 72.8333,511.5 56.5,511.5C 41.6249,503.368 38.1249,491.701 46,476.5C 49.2692,473.117 53.1026,470.617 57.5,469C 70.8333,468.667 84.1667,468.333 97.5,468C 104.032,465.771 106.532,461.271 105,454.5C 104.215,452.714 103.049,451.214 101.5,450C 92.4513,448.326 83.4513,446.326 74.5,444C 65.9783,440.409 58.9783,434.909 53.5,427.5 Z"/></g>
<g><path style="opacity:1" fill="#1d83d4" d="M 191.5,427.5 C 205.833,427.5 220.167,427.5 234.5,427.5C 234.333,438.505 234.5,449.505 235,460.5C 237.262,466.213 241.429,468.713 247.5,468C 242.37,457.183 244.37,447.85 253.5,440C 260.966,435.684 268.466,435.518 276,439.5C 276.499,435.514 276.666,431.514 276.5,427.5C 290.833,427.5 305.167,427.5 319.5,427.5C 319.667,441.171 319.5,454.837 319,468.5C 318.268,471.529 317.435,474.529 316.5,477.5C 323.346,492.975 319.346,504.308 304.5,511.5C 300.5,511.5 296.5,511.5 292.5,511.5C 287.229,507.805 281.896,507.805 276.5,511.5C 262.5,511.5 248.5,511.5 234.5,511.5C 211.821,505.654 197.655,491.321 192,468.5C 191.5,454.837 191.333,441.171 191.5,427.5 Z"/></g>
<g><path style="opacity:1" fill="#1d83d4" d="M 361.5,427.5 C 376.167,427.5 390.833,427.5 405.5,427.5C 405.5,441.167 405.5,454.833 405.5,468.5C 421.503,468.333 437.503,468.5 453.5,469C 465.156,473.468 470.323,481.968 469,494.5C 466.831,502.498 461.997,508.165 454.5,511.5C 428.5,511.5 402.5,511.5 376.5,511.5C 369.003,508.165 364.169,502.498 362,494.5C 361.5,472.169 361.333,449.836 361.5,427.5 Z"/></g>
</svg>
