<?xml version="1.0" encoding="UTF-8"?>
<!DOCTYPE svg PUBLIC "-//W3C//DTD SVG 1.1//EN" "http://www.w3.org/Graphics/SVG/1.1/DTD/svg11.dtd">
<svg xmlns="http://www.w3.org/2000/svg" version="1.1" width="512px" height="512px" style="shape-rendering:geometricPrecision; text-rendering:geometricPrecision; image-rendering:optimizeQuality; fill-rule:evenodd; clip-rule:evenodd" xmlns:xlink="http://www.w3.org/1999/xlink">
<g><path style="opacity:1" fill="#11b1ff" d="M -0.5,-0.5 C 14.1667,-0.5 28.8333,-0.5 43.5,-0.5C 49.8333,6.16667 56.1667,12.8333 62.5,19.5C 58.5,19.5 54.5,19.5 50.5,19.5C 40.1667,19.5 29.8333,19.5 19.5,19.5C 19.5,30.1667 19.5,40.8333 19.5,51.5C 12.8333,45.1667 6.16667,38.8333 -0.5,32.5C -0.5,21.5 -0.5,10.5 -0.5,-0.5 Z"/></g>
<g><path style="opacity:1" fill="#10b8ff" d="M 43.5,-0.5 C 65.8333,-0.5 88.1667,-0.5 110.5,-0.5C 116.833,6.16667 123.167,12.8333 129.5,19.5C 107.167,19.5 84.8333,19.5 62.5,19.5C 56.1667,12.8333 49.8333,6.16667 43.5,-0.5 Z"/></g>
<g><path style="opacity:1" fill="#0ebeff" d="M 110.5,-0.5 C 133.167,-0.5 155.833,-0.5 178.5,-0.5C 184.833,6.16667 191.167,12.8333 197.5,19.5C 191.167,19.5 184.833,19.5 178.5,19.5C 162.167,19.5 145.833,19.5 129.5,19.5C 123.167,12.8333 116.833,6.16667 110.5,-0.5 Z"/></g>
<g><path style="opacity:1" fill="#0dc4ff" d="M 178.5,-0.5 C 203.167,-0.5 227.833,-0.5 252.5,-0.5C 258.833,6.16667 265.167,12.8333 271.5,19.5C 246.833,19.5 222.167,19.5 197.5,19.5C 191.167,12.8333 184.833,6.16667 178.5,-0.5 Z"/></g>
<g><path style="opacity:1" fill="#0dc8ff" d="M 252.5,-0.5 C 265.5,-0.5 278.5,-0.5 291.5,-0.5C 297.833,6.16667 304.167,12.8333 310.5,19.5C 306.833,19.5 303.167,19.5 299.5,19.5C 290.167,19.5 280.833,19.5 271.5,19.5C 265.167,12.8333 258.833,6.16667 252.5,-0.5 Z"/></g>
<g><path style="opacity:1" fill="#0cccff" d="M 291.5,-0.5 C 310.5,-0.5 329.5,-0.5 348.5,-0.5C 354.833,6.16667 361.167,12.8333 367.5,19.5C 352.833,19.5 338.167,19.5 323.5,19.5C 319.167,19.5 314.833,19.5 310.5,19.5C 304.167,12.8333 297.833,6.16667 291.5,-0.5 Z"/></g>
<g><path style="opacity:1" fill="#0bd1ff" d="M 348.5,-0.5 C 383.167,-0.5 417.833,-0.5 452.5,-0.5C 458.833,6.16667 465.167,12.8333 471.5,19.5C 436.833,19.5 402.167,19.5 367.5,19.5C 361.167,12.8333 354.833,6.16667 348.5,-0.5 Z"/></g>
<g><path style="opacity:1" fill="#0ad5ff" d="M 452.5,-0.5 C 471.833,-0.5 491.167,-0.5 510.5,-0.5C 510.667,18.8362 510.5,38.1695 510,57.5C 503.965,51.2972 497.798,45.2972 491.5,39.5C 491.824,32.6457 491.491,25.979 490.5,19.5C 484.167,19.5 477.833,19.5 471.5,19.5C 465.167,12.8333 458.833,6.16667 452.5,-0.5 Z"/></g>
<g><path style="opacity:1" fill="#151515" d="M 50.5,19.5 C 91.1667,60.5 131.833,101.5 172.5,142.5C 170.833,142.5 169.167,142.5 167.5,142.5C 167.263,143.791 167.596,144.791 168.5,145.5C 178.197,174.258 187.863,202.925 197.5,231.5C 200.595,242.784 204.261,253.784 208.5,264.5C 211.298,274.227 214.298,283.893 217.5,293.5C 216.761,293.631 216.094,293.464 215.5,293C 150.299,227.632 84.9654,162.465 19.5,97.5C 19.5,82.1667 19.5,66.8333 19.5,51.5C 19.5,40.8333 19.5,30.1667 19.5,19.5C 29.8333,19.5 40.1667,19.5 50.5,19.5 Z"/></g>
<g><path style="opacity:1" fill="#1b1b1b" d="M 50.5,19.5 C 54.5,19.5 58.5,19.5 62.5,19.5C 84.8333,19.5 107.167,19.5 129.5,19.5C 145.833,19.5 162.167,19.5 178.5,19.5C 220.5,62.1667 262.833,104.5 305.5,146.5C 301.656,159.539 297.656,172.539 293.5,185.5C 288.306,201.965 282.973,218.298 277.5,234.5C 255.833,213.167 234.167,191.833 212.5,170.5C 209.325,161.643 206.325,152.643 203.5,143.5C 193.347,142.506 183.014,142.172 172.5,142.5C 131.833,101.5 91.1667,60.5 50.5,19.5 Z"/></g>
<g><path style="opacity:1" fill="#222221" d="M 178.5,19.5 C 184.833,19.5 191.167,19.5 197.5,19.5C 222.167,19.5 246.833,19.5 271.5,19.5C 280.833,19.5 290.167,19.5 299.5,19.5C 362.799,83.2988 426.299,146.965 490,210.5C 490.5,245.165 490.667,279.832 490.5,314.5C 439.535,264.035 388.701,213.368 338,162.5C 337.617,163.056 337.117,163.389 336.5,163.5C 338.5,157.167 340.5,150.833 342.5,144.5C 343.043,144.44 343.376,144.107 343.5,143.5C 331.006,142.175 318.673,142.175 306.5,143.5C 306.443,144.609 306.11,145.609 305.5,146.5C 262.833,104.5 220.5,62.1667 178.5,19.5 Z"/></g>
<g><path style="opacity:1" fill="#252625" d="M 299.5,19.5 C 303.167,19.5 306.833,19.5 310.5,19.5C 314.833,19.5 319.167,19.5 323.5,19.5C 378.799,75.2987 434.299,130.965 490,186.5C 490.5,130.834 490.667,75.1677 490.5,19.5C 491.491,25.979 491.824,32.6457 491.5,39.5C 491.5,74.1667 491.5,108.833 491.5,143.5C 491.5,162.5 491.5,181.5 491.5,200.5C 491.5,213.5 491.5,226.5 491.5,239.5C 491.5,264.167 491.5,288.833 491.5,313.5C 491.5,336.167 491.5,358.833 491.5,381.5C 491.5,403.833 491.5,426.167 491.5,448.5C 491.829,463.01 491.496,477.343 490.5,491.5C 490.5,476.833 490.5,462.167 490.5,447.5C 490.5,408.833 490.5,370.167 490.5,331.5C 490.5,325.833 490.5,320.167 490.5,314.5C 490.667,279.832 490.5,245.165 490,210.5C 426.299,146.965 362.799,83.2988 299.5,19.5 Z"/></g>
<g><path style="opacity:1" fill="#282827" d="M 323.5,19.5 C 338.167,19.5 352.833,19.5 367.5,19.5C 402.167,19.5 436.833,19.5 471.5,19.5C 477.833,19.5 484.167,19.5 490.5,19.5C 490.667,75.1677 490.5,130.834 490,186.5C 434.299,130.965 378.799,75.2987 323.5,19.5 Z"/></g>
<g><path style="opacity:1" fill="#0bd1fe" d="M 510.5,-0.5 C 510.833,-0.5 511.167,-0.5 511.5,-0.5C 511.5,43.5 511.5,87.5 511.5,131.5C 510.67,141.325 510.17,151.325 510,161.5C 503.965,155.297 497.798,149.297 491.5,143.5C 491.5,108.833 491.5,74.1667 491.5,39.5C 497.798,45.2972 503.965,51.2972 510,57.5C 510.5,38.1695 510.667,18.8362 510.5,-0.5 Z"/></g>
<g><path style="opacity:1" fill="#12abff" d="M -0.5,32.5 C 6.16667,38.8333 12.8333,45.1667 19.5,51.5C 19.5,66.8333 19.5,82.1667 19.5,97.5C 19.5,104.167 19.5,110.833 19.5,117.5C 12.8333,111.167 6.16667,104.833 -0.5,98.5C -0.5,76.5 -0.5,54.5 -0.5,32.5 Z"/></g>
<g><path style="opacity:1" fill="#0f0f0f" d="M 19.5,97.5 C 84.9654,162.465 150.299,227.632 215.5,293C 216.094,293.464 216.761,293.631 217.5,293.5C 225.693,318.079 233.693,342.745 241.5,367.5C 250.525,367.832 259.525,367.498 268.5,366.5C 270.842,359.805 273.176,353.138 275.5,346.5C 276.117,346.389 276.617,346.056 277,345.5C 325.701,394.035 374.201,442.701 422.5,491.5C 412.833,491.5 403.167,491.5 393.5,491.5C 370.5,491.5 347.5,491.5 324.5,491.5C 318.833,491.5 313.167,491.5 307.5,491.5C 211.833,395.167 115.833,299.167 19.5,203.5C 19.5,197.833 19.5,192.167 19.5,186.5C 19.5,163.5 19.5,140.5 19.5,117.5C 19.5,110.833 19.5,104.167 19.5,97.5 Z"/></g>
<g><path style="opacity:1" fill="#13a5ff" d="M -0.5,98.5 C 6.16667,104.833 12.8333,111.167 19.5,117.5C 19.5,140.5 19.5,163.5 19.5,186.5C 12.8333,180.167 6.16667,173.833 -0.5,167.5C -0.5,144.5 -0.5,121.5 -0.5,98.5 Z"/></g>
<g><path style="opacity:1" fill="#173846" d="M 172.5,142.5 C 183.014,142.172 193.347,142.506 203.5,143.5C 191.452,142.855 179.785,143.522 168.5,145.5C 167.596,144.791 167.263,143.791 167.5,142.5C 169.167,142.5 170.833,142.5 172.5,142.5 Z"/></g>
<g><path style="opacity:1" fill="#1d404c" d="M 306.5,143.5 C 318.673,142.175 331.006,142.175 343.5,143.5C 343.376,144.107 343.043,144.44 342.5,144.5C 330.678,143.505 318.678,143.172 306.5,143.5 Z"/></g>
<g><path style="opacity:1" fill="#11b0fc" d="M 203.5,143.5 C 206.325,152.643 209.325,161.643 212.5,170.5C 223.704,206.112 234.704,241.779 245.5,277.5C 229.535,262.035 213.701,246.368 198,230.5C 197.601,230.728 197.435,231.062 197.5,231.5C 187.863,202.925 178.197,174.258 168.5,145.5C 179.785,143.522 191.452,142.855 203.5,143.5 Z"/></g>
<g><path style="opacity:1" fill="#0fbdfd" d="M 306.5,143.5 C 318.678,143.172 330.678,143.505 342.5,144.5C 340.5,150.833 338.5,157.167 336.5,163.5C 334.971,167.421 333.637,171.421 332.5,175.5C 328.675,186.979 324.675,198.312 320.5,209.5C 311.868,201.369 303.368,193.036 295,184.5C 294.617,185.056 294.117,185.389 293.5,185.5C 297.656,172.539 301.656,159.539 305.5,146.5C 306.11,145.609 306.443,144.609 306.5,143.5 Z"/></g>
<g><path style="opacity:1" fill="#0ccbfe" d="M 511.5,131.5 C 511.5,160.833 511.5,190.167 511.5,219.5C 511.167,219.5 510.833,219.5 510.5,219.5C 504.5,212.833 498.167,206.5 491.5,200.5C 491.5,181.5 491.5,162.5 491.5,143.5C 497.798,149.297 503.965,155.297 510,161.5C 510.17,151.325 510.67,141.325 511.5,131.5 Z"/></g>
<g><path style="opacity:1" fill="#201f1f" d="M 490.5,314.5 C 490.5,320.167 490.5,325.833 490.5,331.5C 438.368,279.868 386.368,228.035 334.5,176C 333.906,175.536 333.239,175.369 332.5,175.5C 333.637,171.421 334.971,167.421 336.5,163.5C 337.117,163.389 337.617,163.056 338,162.5C 388.701,213.368 439.535,264.035 490.5,314.5 Z"/></g>
<g><path style="opacity:1" fill="#159fff" d="M -0.5,167.5 C 6.16667,173.833 12.8333,180.167 19.5,186.5C 19.5,192.167 19.5,197.833 19.5,203.5C 19.5,221.833 19.5,240.167 19.5,258.5C 12.8333,252.167 6.16667,245.833 -0.5,239.5C -0.5,215.5 -0.5,191.5 -0.5,167.5 Z"/></g>
<g><path style="opacity:1" fill="#1c1c1b" d="M 332.5,175.5 C 333.239,175.369 333.906,175.536 334.5,176C 386.368,228.035 438.368,279.868 490.5,331.5C 490.5,370.167 490.5,408.833 490.5,447.5C 428.701,386.201 367.035,324.701 305.5,263C 304.906,262.536 304.239,262.369 303.5,262.5C 303.5,261.833 303.5,261.167 303.5,260.5C 309.739,243.784 315.405,226.784 320.5,209.5C 324.675,198.312 328.675,186.979 332.5,175.5 Z"/></g>
<g><path style="opacity:1" fill="#10b7fd" d="M 320.5,209.5 C 315.405,226.784 309.739,243.784 303.5,260.5C 295.536,252.035 287.369,243.702 279,235.5C 278.617,236.056 278.117,236.389 277.5,236.5C 277.5,235.833 277.5,235.167 277.5,234.5C 282.973,218.298 288.306,201.965 293.5,185.5C 294.117,185.389 294.617,185.056 295,184.5C 303.368,193.036 311.868,201.369 320.5,209.5 Z"/></g>
<g><path style="opacity:1" fill="#171717" d="M 212.5,170.5 C 234.167,191.833 255.833,213.167 277.5,234.5C 277.5,235.167 277.5,235.833 277.5,236.5C 271.102,255.362 265.102,274.362 259.5,293.5C 258.107,297.51 256.607,301.51 255,305.5C 252.299,295.894 249.132,286.561 245.5,277.5C 234.704,241.779 223.704,206.112 212.5,170.5 Z"/></g>
<g><path style="opacity:1" fill="#0dc8ff" d="M 491.5,200.5 C 498.167,206.5 504.5,212.833 510.5,219.5C 510.667,232.171 510.5,244.838 510,257.5C 503.965,251.297 497.798,245.297 491.5,239.5C 491.5,226.5 491.5,213.5 491.5,200.5 Z"/></g>
<g><path style="opacity:1" fill="#090909" d="M 19.5,203.5 C 115.833,299.167 211.833,395.167 307.5,491.5C 289.167,491.5 270.833,491.5 252.5,491.5C 227.833,491.5 203.167,491.5 178.5,491.5C 125.833,438.167 72.8333,385.167 19.5,332.5C 19.5,307.833 19.5,283.167 19.5,258.5C 19.5,240.167 19.5,221.833 19.5,203.5 Z"/></g>
<g><path style="opacity:1" fill="#12acfd" d="M 245.5,277.5 C 249.132,286.561 252.299,295.894 255,305.5C 256.607,301.51 258.107,297.51 259.5,293.5C 268.167,301.167 276.833,308.833 285.5,316.5C 283.5,322.167 281.5,327.833 279.5,333.5C 255.868,310.368 232.368,287.035 209,263.5C 208.601,263.728 208.435,264.062 208.5,264.5C 204.261,253.784 200.595,242.784 197.5,231.5C 197.435,231.062 197.601,230.728 198,230.5C 213.701,246.368 229.535,262.035 245.5,277.5 Z"/></g>
<g><path style="opacity:1" fill="#11b0fc" d="M 303.5,260.5 C 303.5,261.167 303.5,261.833 303.5,262.5C 297.304,280.421 291.304,298.421 285.5,316.5C 276.833,308.833 268.167,301.167 259.5,293.5C 265.102,274.362 271.102,255.362 277.5,236.5C 278.117,236.389 278.617,236.056 279,235.5C 287.369,243.702 295.536,252.035 303.5,260.5 Z"/></g>
<g><path style="opacity:1" fill="#1698ff" d="M -0.5,239.5 C 6.16667,245.833 12.8333,252.167 19.5,258.5C 19.5,283.167 19.5,307.833 19.5,332.5C 19.5,339.167 19.5,345.833 19.5,352.5C 12.8333,346.167 6.16667,339.833 -0.5,333.5C -0.5,302.167 -0.5,270.833 -0.5,239.5 Z"/></g>
<g><path style="opacity:1" fill="#0dc4fe" d="M 510.5,219.5 C 510.833,219.5 511.167,219.5 511.5,219.5C 511.5,245.167 511.5,270.833 511.5,296.5C 510.669,307.993 510.169,319.659 510,331.5C 503.965,325.297 497.798,319.297 491.5,313.5C 491.5,288.833 491.5,264.167 491.5,239.5C 497.798,245.297 503.965,251.297 510,257.5C 510.5,244.838 510.667,232.171 510.5,219.5 Z"/></g>
<g><path style="opacity:1" fill="#13a9fe" d="M 279.5,333.5 C 278.167,337.833 276.833,342.167 275.5,346.5C 273.176,353.138 270.842,359.805 268.5,366.5C 259.525,367.498 250.525,367.832 241.5,367.5C 233.693,342.745 225.693,318.079 217.5,293.5C 214.298,283.893 211.298,274.227 208.5,264.5C 208.435,264.062 208.601,263.728 209,263.5C 232.368,287.035 255.868,310.368 279.5,333.5 Z"/></g>
<g><path style="opacity:1" fill="#161615" d="M 303.5,262.5 C 304.239,262.369 304.906,262.536 305.5,263C 367.035,324.701 428.701,386.201 490.5,447.5C 490.5,462.167 490.5,476.833 490.5,491.5C 480.167,491.5 469.833,491.5 459.5,491.5C 447.167,491.5 434.833,491.5 422.5,491.5C 374.201,442.701 325.701,394.035 277,345.5C 276.617,346.056 276.117,346.389 275.5,346.5C 276.833,342.167 278.167,337.833 279.5,333.5C 281.5,327.833 283.5,322.167 285.5,316.5C 291.304,298.421 297.304,280.421 303.5,262.5 Z"/></g>
<g><path style="opacity:1" fill="#0ebefe" d="M 511.5,296.5 C 511.5,319.833 511.5,343.167 511.5,366.5C 510.67,377.326 510.17,388.326 510,399.5C 503.965,393.297 497.798,387.297 491.5,381.5C 491.5,358.833 491.5,336.167 491.5,313.5C 497.798,319.297 503.965,325.297 510,331.5C 510.169,319.659 510.669,307.993 511.5,296.5 Z"/></g>
<g><path style="opacity:1" fill="#1792ff" d="M -0.5,333.5 C 6.16667,339.833 12.8333,346.167 19.5,352.5C 19.5,385.5 19.5,418.5 19.5,451.5C 12.8333,445.167 6.16667,438.833 -0.5,432.5C -0.5,399.5 -0.5,366.5 -0.5,333.5 Z"/></g>
<g><path style="opacity:1" fill="#040404" d="M 19.5,332.5 C 72.8333,385.167 125.833,438.167 178.5,491.5C 171.833,491.5 165.167,491.5 158.5,491.5C 125.5,491.5 92.5,491.5 59.5,491.5C 46.1667,491.5 32.8333,491.5 19.5,491.5C 19.5,478.167 19.5,464.833 19.5,451.5C 19.5,418.5 19.5,385.5 19.5,352.5C 19.5,345.833 19.5,339.167 19.5,332.5 Z"/></g>
<g><path style="opacity:1" fill="#10b8fe" d="M 511.5,366.5 C 511.5,392.833 511.5,419.167 511.5,445.5C 510.671,452.321 510.171,459.321 510,466.5C 503.965,460.297 497.798,454.297 491.5,448.5C 491.5,426.167 491.5,403.833 491.5,381.5C 497.798,387.297 503.965,393.297 510,399.5C 510.17,388.326 510.67,377.326 511.5,366.5 Z"/></g>
<g><path style="opacity:1" fill="#11b1fe" d="M 511.5,445.5 C 511.5,467.5 511.5,489.5 511.5,511.5C 500.5,511.5 489.5,511.5 478.5,511.5C 472.167,504.833 465.833,498.167 459.5,491.5C 469.833,491.5 480.167,491.5 490.5,491.5C 491.496,477.343 491.829,463.01 491.5,448.5C 497.798,454.297 503.965,460.297 510,466.5C 510.171,459.321 510.671,452.321 511.5,445.5 Z"/></g>
<g><path style="opacity:1" fill="#188dff" d="M -0.5,432.5 C 6.16667,438.833 12.8333,445.167 19.5,451.5C 19.5,464.833 19.5,478.167 19.5,491.5C 32.8333,491.5 46.1667,491.5 59.5,491.5C 65.8333,498.167 72.1667,504.833 78.5,511.5C 52.1667,511.5 25.8333,511.5 -0.5,511.5C -0.5,485.167 -0.5,458.833 -0.5,432.5 Z"/></g>
<g><path style="opacity:1" fill="#1792ff" d="M 59.5,491.5 C 92.5,491.5 125.5,491.5 158.5,491.5C 164.833,498.167 171.167,504.833 177.5,511.5C 144.5,511.5 111.5,511.5 78.5,511.5C 72.1667,504.833 65.8333,498.167 59.5,491.5 Z"/></g>
<g><path style="opacity:1" fill="#1698ff" d="M 158.5,491.5 C 165.167,491.5 171.833,491.5 178.5,491.5C 203.167,491.5 227.833,491.5 252.5,491.5C 258.833,498.167 265.167,504.833 271.5,511.5C 240.167,511.5 208.833,511.5 177.5,511.5C 171.167,504.833 164.833,498.167 158.5,491.5 Z"/></g>
<g><path style="opacity:1" fill="#159fff" d="M 252.5,491.5 C 270.833,491.5 289.167,491.5 307.5,491.5C 313.167,491.5 318.833,491.5 324.5,491.5C 330.833,498.167 337.167,504.833 343.5,511.5C 319.5,511.5 295.5,511.5 271.5,511.5C 265.167,504.833 258.833,498.167 252.5,491.5 Z"/></g>
<g><path style="opacity:1" fill="#13a5ff" d="M 324.5,491.5 C 347.5,491.5 370.5,491.5 393.5,491.5C 399.833,498.167 406.167,504.833 412.5,511.5C 389.5,511.5 366.5,511.5 343.5,511.5C 337.167,504.833 330.833,498.167 324.5,491.5 Z"/></g>
<g><path style="opacity:1" fill="#12abff" d="M 393.5,491.5 C 403.167,491.5 412.833,491.5 422.5,491.5C 434.833,491.5 447.167,491.5 459.5,491.5C 465.833,498.167 472.167,504.833 478.5,511.5C 456.5,511.5 434.5,511.5 412.5,511.5C 406.167,504.833 399.833,498.167 393.5,491.5 Z"/></g>
</svg>
