<?xml version="1.0" encoding="UTF-8"?>
<!DOCTYPE svg PUBLIC "-//W3C//DTD SVG 1.1//EN" "http://www.w3.org/Graphics/SVG/1.1/DTD/svg11.dtd">
<svg xmlns="http://www.w3.org/2000/svg" version="1.1" width="512px" height="512px" style="shape-rendering:geometricPrecision; text-rendering:geometricPrecision; image-rendering:optimizeQuality; fill-rule:evenodd; clip-rule:evenodd" xmlns:xlink="http://www.w3.org/1999/xlink">
<g><path style="opacity:0.999" fill="#470137" d="M 86.5,23.5 C 199.167,23.3333 311.834,23.5 424.5,24C 455.281,29.8049 477.114,46.9715 490,75.5C 492.449,81.6297 494.116,87.963 495,94.5C 495.667,201.833 495.667,309.167 495,416.5C 489.195,447.281 472.028,469.114 443.5,482C 437.37,484.449 431.037,486.116 424.5,487C 311.833,487.667 199.167,487.667 86.5,487C 55.7192,481.195 33.8858,464.028 21,435.5C 18.5509,429.37 16.8843,423.037 16,416.5C 15.3333,309.167 15.3333,201.833 16,94.5C 24.347,55.6534 47.847,31.9867 86.5,23.5 Z"/></g>
<g><path style="opacity:1" fill="#fd60f4" d="M 379.5,143.5 C 392.833,143.5 406.167,143.5 419.5,143.5C 419.333,209.168 419.5,274.834 420,340.5C 421.867,346.074 422.867,351.741 423,357.5C 393.653,371.13 363.153,374.63 331.5,368C 307.302,359.802 292.136,343.302 286,318.5C 278.599,288.86 284.266,262.193 303,238.5C 323.908,216.586 349.408,207.919 379.5,212.5C 379.5,189.5 379.5,166.5 379.5,143.5 Z"/></g>
<g><path style="opacity:1" fill="#fd60f4" d="M 90.5,151.5 C 105.17,151.333 119.837,151.5 134.5,152C 135.333,152.833 136.167,153.667 137,154.5C 150.578,181.324 164.412,207.99 178.5,234.5C 192.588,207.99 206.422,181.324 220,154.5C 220.833,153.667 221.667,152.833 222.5,152C 236.179,151.167 249.846,151.334 263.5,152.5C 243.619,187.098 223.619,221.598 203.5,256C 222.585,289.417 242.085,322.583 262,355.5C 264.146,359.441 265.979,363.441 267.5,367.5C 252.496,367.667 237.496,367.5 222.5,367C 206.691,339.212 191.025,311.379 175.5,283.5C 160.754,311.326 145.754,338.993 130.5,366.5C 116.215,367.483 101.882,367.816 87.5,367.5C 87.4914,365.692 87.9914,364.025 89,362.5C 109.633,328.066 130.133,293.566 150.5,259C 130.356,223.209 110.356,187.376 90.5,151.5 Z"/></g>
<g><path style="opacity:1" fill="#470137" d="M 355.5,239.5 C 360.844,239.334 366.177,239.501 371.5,240C 374.308,240.598 376.808,241.765 379,243.5C 379.667,275.833 379.667,308.167 379,340.5C 351.528,347.512 332.694,337.679 322.5,311C 315.537,286.794 320.871,265.794 338.5,248C 343.99,244.588 349.657,241.755 355.5,239.5 Z"/></g>
</svg>
